HIERARCHY
ROOT Hips
{
  OFFSET 0 0.240689 0
  CHANNELS 6 Xposition Yposition Zposition Zrotation Xrotation Yrotation
  JOINT Bip01_Spine0
  {
    OFFSET 0 -24.7459 49.7988
    CHANNELS 6 Xposition Yposition Zposition Zrotation Xrotation Yrotation
    JOINT Bip01_Pelvis
    {
      OFFSET 0 0 0
      CHANNELS 6 Xposition Yposition Zposition Zrotation Xrotation Yrotation
      JOINT Bip01_Spine0_Tail
      {
        OFFSET -6.47486 -3.86022 0
        CHANNELS 6 Xposition Yposition Zposition Zrotation Xrotation Yrotation
        JOINT Bip01_Spine0_Tail1
        {
          OFFSET 10.3837 -0.00825882 0
          CHANNELS 6 Xposition Yposition Zposition Zrotation Xrotation Yrotation
          JOINT Bip01_Spine0_Tail2
          {
            OFFSET 10.3837 -0.00826263 0
            CHANNELS 6 Xposition Yposition Zposition Zrotation Xrotation Yrotation
            JOINT Bip01_Spine0_Tail3
            {
              OFFSET 10.3837 -0.00825882 0
              CHANNELS 6 Xposition Yposition Zposition Zrotation Xrotation Yrotation
              JOINT Bip01_Spine0_Tail4
              {
                OFFSET 10.3837 -0.00826263 0
                CHANNELS 6 Xposition Yposition Zposition Zrotation Xrotation Yrotation
                End Site
                {
                  OFFSET 0 0 0
                }
              }
            }
          }
        }
      }
      JOINT Bip01_R_Thigh
      {
        OFFSET 0 -1.52588e-005 -8.75617
        CHANNELS 6 Xposition Yposition Zposition Zrotation Xrotation Yrotation
        JOINT Bip01_R_Calf
        {
          OFFSET 19.7638 0 0
          CHANNELS 6 Xposition Yposition Zposition Zrotation Xrotation Yrotation
          JOINT Bip01_R_Foot
          {
            OFFSET 18.6534 0 0
            CHANNELS 6 Xposition Yposition Zposition Zrotation Xrotation Yrotation
            JOINT Bip01_R_Toe0
            {
              OFFSET 5.09145 13.9567 0
              CHANNELS 6 Xposition Yposition Zposition Zrotation Xrotation Yrotation
              JOINT Bip01_R_Toe01
              {
                OFFSET 4.28803 0 0
                CHANNELS 6 Xposition Yposition Zposition Zrotation Xrotation Yrotation
                JOINT Bip01_R_Toe02
                {
                  OFFSET 3.85801 0 0
                  CHANNELS 6 Xposition Yposition Zposition Zrotation Xrotation Yrotation
                  End Site
                  {
                    OFFSET 0 0 0
                  }
                }
              }
            }
          }
        }
      }
      JOINT Bip01_L_Thigh
      {
        OFFSET 0 1.52588e-005 8.75617
        CHANNELS 6 Xposition Yposition Zposition Zrotation Xrotation Yrotation
        JOINT Bip01_L_Calf
        {
          OFFSET 19.7638 0 0
          CHANNELS 6 Xposition Yposition Zposition Zrotation Xrotation Yrotation
          JOINT Bip01_L_Foot
          {
            OFFSET 18.6534 0 0
            CHANNELS 6 Xposition Yposition Zposition Zrotation Xrotation Yrotation
            JOINT Bip01_L_Toe0
            {
              OFFSET 5.09144 13.9567 0
              CHANNELS 6 Xposition Yposition Zposition Zrotation Xrotation Yrotation
              JOINT Bip01_L_Toe01
              {
                OFFSET 4.28802 0 0
                CHANNELS 6 Xposition Yposition Zposition Zrotation Xrotation Yrotation
                JOINT Bip01_L_Toe02
                {
                  OFFSET 3.85801 0 0
                  CHANNELS 6 Xposition Yposition Zposition Zrotation Xrotation Yrotation
                  End Site
                  {
                    OFFSET 0 0 0
                  }
                }
              }
            }
          }
        }
      }
      JOINT Bip01_Spine
      {
        OFFSET 9.14835 -0.00640869 -1.1e-005
        CHANNELS 6 Xposition Yposition Zposition Zrotation Xrotation Yrotation
        JOINT Bip01_Spine1
        {
          OFFSET 8.04366 -0.00638199 0
          CHANNELS 6 Xposition Yposition Zposition Zrotation Xrotation Yrotation
          JOINT Bip01_Spine2
          {
            OFFSET 8.04367 -0.00639343 0
            CHANNELS 6 Xposition Yposition Zposition Zrotation Xrotation Yrotation
            JOINT Bip01_Spine3
            {
              OFFSET 8.04304 -0.00831222 0
              CHANNELS 6 Xposition Yposition Zposition Zrotation Xrotation Yrotation
              JOINT Bip01_Neck
              {
                OFFSET 10.6685 1.06813 0
                CHANNELS 6 Xposition Yposition Zposition Zrotation Xrotation Yrotation
                JOINT Bip01_R_Clavicle
                {
                  OFFSET -3.21661 -4.89635 -9.04802
                  CHANNELS 6 Xposition Yposition Zposition Zrotation Xrotation Yrotation
                  JOINT Bip01_R_UpperArm
                  {
                    OFFSET 19.0492 0 0
                    CHANNELS 6 Xposition Yposition Zposition Zrotation Xrotation Yrotation
                    JOINT Bip01_R_Forearm
                    {
                      OFFSET 10.3706 0 0
                      CHANNELS 6 Xposition Yposition Zposition Zrotation Xrotation Yrotation
                      JOINT Bip01_R_Hand
                      {
                        OFFSET 22.8632 0 0
                        CHANNELS 6 Xposition Yposition Zposition Zrotation Xrotation Yrotation
                        JOINT Bip01_R_Finger0
                        {
                          OFFSET 6.48259 0.103651 0.504496
                          CHANNELS 6 Xposition Yposition Zposition Zrotation Xrotation Yrotation
                          JOINT Bip01_R_Finger01
                          {
                            OFFSET 3.66847 0 0
                            CHANNELS 6 Xposition Yposition Zposition Zrotation Xrotation Yrotation
                            End Site
                            {
                              OFFSET 0 0 0
                            }
                          }
                        }
                      }
                    }
                  }
                }
                JOINT Bip01_L_Clavicle
                {
                  OFFSET -3.21661 -4.89641 9.04797
                  CHANNELS 6 Xposition Yposition Zposition Zrotation Xrotation Yrotation
                  JOINT Bip01_L_UpperArm
                  {
                    OFFSET 19.0492 0 0
                    CHANNELS 6 Xposition Yposition Zposition Zrotation Xrotation Yrotation
                    JOINT Bip01_L_Forearm
                    {
                      OFFSET 10.3706 0 0
                      CHANNELS 6 Xposition Yposition Zposition Zrotation Xrotation Yrotation
                      JOINT Bip01_L_Hand
                      {
                        OFFSET 22.8631 0 0
                        CHANNELS 6 Xposition Yposition Zposition Zrotation Xrotation Yrotation
                        JOINT Bip01_L_Finger0
                        {
                          OFFSET 6.48257 0.103655 -0.504492
                          CHANNELS 6 Xposition Yposition Zposition Zrotation Xrotation Yrotation
                          JOINT Bip01_L_Finger01
                          {
                            OFFSET 3.66844 0 0
                            CHANNELS 6 Xposition Yposition Zposition Zrotation Xrotation Yrotation
                            End Site
                            {
                              OFFSET 0 0 0
                            }
                          }
                        }
                      }
                    }
                  }
                }
                JOINT Bip01_Neck1
                {
                  OFFSET 7.52459 -0.00656509 0
                  CHANNELS 6 Xposition Yposition Zposition Zrotation Xrotation Yrotation
                  JOINT Bip01_Neck2
                  {
                    OFFSET 8.4783 -0.00588226 0
                    CHANNELS 6 Xposition Yposition Zposition Zrotation Xrotation Yrotation
                    JOINT Bip01_Head
                    {
                      OFFSET 8.41606 0 0
                      CHANNELS 6 Xposition Yposition Zposition Zrotation Xrotation Yrotation
                      JOINT EyesBlue
                      {
                        OFFSET 0 0 0
                        CHANNELS 6 Xposition Yposition Zposition Zrotation Xrotation Yrotation
                        JOINT EyesBlue_2
                        {
                          OFFSET 0 -0.500007 0
                          CHANNELS 6 Xposition Yposition Zposition Zrotation Xrotation Yrotation
                          End Site
                          {
                            OFFSET 0 0 0
                          }
                        }
                      }
                      JOINT Bip01_Head2_Eyeleds
                      {
                        OFFSET 6.52751 7.61746 2.2e-005
                        CHANNELS 6 Xposition Yposition Zposition Zrotation Xrotation Yrotation
                        End Site
                        {
                          OFFSET 0 0 0
                        }
                      }
                      JOINT Bip01_Head_Muzzle
                      {
                        OFFSET 2.88628 13.9448 3.88994
                        CHANNELS 6 Xposition Yposition Zposition Zrotation Xrotation Yrotation
                        End Site
                        {
                          OFFSET 0 0 0
                        }
                      }
                      JOINT Bip01_Head1_Jaw
                      {
                        OFFSET 0.271065 1.32405 0
                        CHANNELS 6 Xposition Yposition Zposition Zrotation Xrotation Yrotation
                        JOINT _Bip01_Head11_TungeControler
                        {
                          OFFSET 4.61616 5.82872 0
                          CHANNELS 6 Xposition Yposition Zposition Zrotation Xrotation Yrotation
                          JOINT _Bip01_Ponytail3_tunge
                          {
                            OFFSET 5.17785 2.98805 0
                            CHANNELS 6 Xposition Yposition Zposition Zrotation Xrotation Yrotation
                            JOINT Bip01_Ponytail31
                            {
                              OFFSET 5.57569 0 0
                              CHANNELS 6 Xposition Yposition Zposition Zrotation Xrotation Yrotation
                              JOINT Bip01_Ponytail32
                              {
                                OFFSET 2.93165 0 0
                                CHANNELS 6 Xposition Yposition Zposition Zrotation Xrotation Yrotation
                                JOINT Bip01_Ponytail3Nub
                                {
                                  OFFSET 3.30155 0 0
                                  CHANNELS 6 Xposition Yposition Zposition Zrotation Xrotation Yrotation
                                  End Site
                                  {
                                    OFFSET 0 0 0
                                  }
                                }
                              }
                            }
                          }
                        }
                        JOINT Bip01_Head_JawNub
                        {
                          OFFSET 15.5776 -0.000389099 0
                          CHANNELS 6 Xposition Yposition Zposition Zrotation Xrotation Yrotation
                          End Site
                          {
                            OFFSET 0 0 0
                          }
                        }
                      }
                      JOINT Bip01_Ponytail2
                      {
                        OFFSET 9.40334 1.03973 -6.51764
                        CHANNELS 6 Xposition Yposition Zposition Zrotation Xrotation Yrotation
                        JOINT Bip01_Ponytail21
                        {
                          OFFSET 2.77018 -0.00640106 1.33514e-005
                          CHANNELS 6 Xposition Yposition Zposition Zrotation Xrotation Yrotation
                          End Site
                          {
                            OFFSET 0 0 0
                          }
                        }
                      }
                      JOINT Bip01_Ponytail1
                      {
                        OFFSET 9.40368 1.03969 6.51768
                        CHANNELS 6 Xposition Yposition Zposition Zrotation Xrotation Yrotation
                        JOINT Bip01_Ponytail11
                        {
                          OFFSET 2.77018 -0.00640487 0
                          CHANNELS 6 Xposition Yposition Zposition Zrotation Xrotation Yrotation
                          End Site
                          {
                            OFFSET 0 0 0
                          }
                        }
                      }
                    }
                  }
                }
              }
            }
          }
        }
      }
    }
  }
}
MOTION
Frames:	4
Frame Time:	0.0333333
0 0 0 -0 -90 -0 1.00079 -28.7008 44.4881 89.8076 -1.99043 80.0037 0 0 0 -89.9994 -0.000533978 -78.4997 -6.34878 -3.85825 -1.29141 170.183 -4.54405 1.69693 10.3812 -0.008026 0.000217 -14.0111 -0.715742 6.46229 10.3808 -0.007804 0.000289 -17.5335 -1.69537 5.75811 10.3841 -0.008094 0.000472 5.43966 -3.08457 8.62529 10.3841 -0.00811 -0.000332001 6.24067 2.78008 4.78275 8.59214e-006 -1.00245e-005 -8.75617 -82.4458 9.64499 -173.406 19.7638 1e-006 -1.42109e-014 -76.9041 -0.000136538 -0.00127643 18.6534 1.42109e-014 6.21725e-015 -25.2161 4.6869 4.17275 5.09143 13.9567 1.42067e-006 111.546 1.08176 -4.88323 4.288 3e-006 -2.11386e-013 68.7873 0.00213579 0.000402746 3.85799 -1e-006 9.59233e-014 -40.7903 0.000974059 0.00212258 -1.85921e-005 1.40245e-005 8.75617 -128.204 10.9591 -175.721 19.7638 3e-006 1e-006 -90.2484 8.96349e-007 0.00376814 18.6534 3e-006 -4.44089e-016 -7.07551 -7.39367 -1.57061 5.09143 13.9567 2.974e-007 100.04 -0.908723 4.91604 4.288 -1.42109e-014 -1e-006 51.4986 0.00280006 0.000955118 3.85799 1.09157e-012 1e-006 -44.9986 0.000922592 0.00228791 8.96529 -0.0062102 1.82409 6.04788 -0.31606 -2.9828 8.04433 -0.006286 0.000100999 5.95256 -0.840745 -7.95569 8.04413 -0.006278 0.000110991 4.48162 -0.0813654 -4.49808 8.04445 -0.00822 0.000255 6.14937 -1.05178 -5.39816 10.6688 1.06807 4.48964e-005 -10.4616 -0.408673 4.44764 -2.73924 -4.66759 -9.32197 -127.919 -83.3203 170.829 19.0492 2.25597e-013 -3e-006 73.72 -26.9598 -116.769 10.3706 7.10542e-015 9.32588e-015 -97.1282 0.000109174 -0.00165355 22.8631 -9.99998e-007 1e-006 -7.60489 4.48855 4.76839 6.48257 0.103652 0.504497 -87.0301 2.11059 -15.3554 3.66844 -2.55573e-013 1e-006 40.1083 0.000961434 0.000432539 -4.14238 -4.79652 8.71893 143.743 83.8994 -78.1329 19.0492 2.16715e-013 -3e-006 73.8602 -6.62636 87.3843 10.3706 3e-006 2.53131e-013 -123.102 0.00053282 -0.00181627 22.8631 -9.99999e-007 1e-006 20.2343 -21.2182 -13.2819 6.48255 0.103653 -0.504495 55.2472 11.1641 -10.8232 3.66843 2.13163e-014 1e-006 25.6075 0.00205232 0.00128933 7.52728 -0.006645 -0.00033 9.74738 2.81447 10.1574 8.47684 -0.006458 0.000191998 15.3847 -1.64912 -4.81798 8.41605 -3e-006 -1.15658e-013 -106.035 -0.145927 -2.33385 -3e-006 3e-006 -3e-006 -23.1098 1.37701e-015 90 2.87894e-007 -0.500004 1.66654e-005 -124.488 90 -145.512 0 0 0 -96.9566 1.52588e-005 -180 5.28137 13.9615 3.81016 -23.1995 1.38206e-015 90 0 0 0 -85.3358 -7.01671e-015 -180 0 0 0 -133.289 -2.17886e-007 -1.65452e-005 0 0 0 148.74 -0.000204435 4.98641e-006 0 0 0 -9.16847 0.000170221 2.85702e-005 0 0 0 -25.15 4.30872e-006 2.88753e-006 0 0 0 -26.1943 4.8717e-007 8.12883e-007 15.5776 -0.000396 -7.00003e-006 -6.36111e-015 -5.65294e-016 2.48481e-017 9.40347 1.03957 -6.51717 -14.5754 4.61967 10.3081 2.77012 -0.006023 0.002114 2.27246 -18.4987 -0.510475 9.40381 1.03954 6.5172 -14.5751 -4.6185 -10.306 2.77011 -0.006008 -0.002105 2.27169 18.5004 0.512625 
0 0 0 -0 -90 -0 0.892306 -28.7008 44.9284 89.8598 -1.62822 81.2319 0 0 0 -90 1.88347e-005 -79.8072 -6.3759 -3.85825 -1.14603 168.742 -4.50721 0.357424 10.3812 -0.008026 0.000217 -15.1916 -0.633264 4.54136 10.3808 -0.007804 0.000289 -14.713 -0.888104 4.4899 10.3841 -0.008094 0.000472 7.47779 -3.26675 8.30976 10.3841 -0.00811 -0.000332001 7.86532 1.47036 4.54147 8.6364e-006 -1.00144e-005 -8.75617 -87.0552 8.38322 -173.448 19.7638 1e-006 -6.21725e-015 -81.4038 -9.05051e-005 -0.00127508 18.6534 -1.42109e-014 5.32907e-015 -24.2634 4.0868 4.48154 5.09143 13.9567 2.01069e-006 108.934 1.28183 -4.84389 4.288 3e-006 -2.20268e-013 64.3258 0.00210165 0.000567411 3.85799 -1e-006 1.52767e-013 -38.4063 0.00105859 0.00207812 -1.86364e-005 1.40144e-005 8.75617 -127.679 10.4852 -176.998 19.7638 3e-006 1e-006 -91.0064 -2.16784e-005 0.00376832 18.6534 3e-006 1.06581e-014 -7.39952 -7.54719 -1.53203 5.09143 13.9567 3.12173e-007 100.305 -0.91332 4.91057 4.288 -2.30926e-014 -1e-006 51.6876 0.00281954 0.000945912 3.85799 1.36868e-012 1e-006 -44.6075 0.000926277 0.00227019 9.0039 -0.00621018 1.61886 6.05006 -0.288812 -2.72526 8.04433 -0.006286 0.000100999 5.24626 -0.650183 -6.98313 8.04413 -0.006278 0.000110995 4.18677 -0.0178085 -3.94705 8.04445 -0.00822 0.000255 5.79022 -0.909853 -4.73414 10.6688 1.06807 4.49223e-005 -10.4634 -0.302274 3.602 -2.88052 -4.68476 -9.27028 -133.679 -83.9138 162.671 19.0492 2.11386e-013 -3e-006 72.3547 -27.5925 -115.328 10.3706 0 -8.88179e-016 -97.2531 0.000112028 -0.00165018 22.8631 -9.99998e-007 1e-006 -8.94381 5.77214 5.01309 6.48257 0.103652 0.504497 -85.4039 1.66346 -15.4089 3.66844 -3.16191e-013 1e-006 36.4559 0.000933654 0.000491493 -4.01069 -4.77913 8.78936 150.234 84.4708 -87.0538 19.0492 1.97176e-013 -3e-006 75.3266 -6.90954 91.2025 10.3706 3e-006 1.50102e-013 -121.611 0.00048782 -0.00183155 22.8631 -9.99999e-007 1e-006 23.267 -19.4915 -11.2899 6.48255 0.103653 -0.504495 49.1375 12.2313 -9.57088 3.66843 1.06581e-014 1e-006 26.4125 0.00206989 0.00126035 7.52728 -0.006645 -0.00033 9.73608 2.80848 10.1359 8.47684 -0.006458 0.000191998 15.4411 -1.65992 -4.83801 8.41605 -3e-006 -9.31478e-014 -104.704 0.10318 -2.3412 -3e-006 3e-006 -3e-006 -23.1098 1.37701e-015 90 2.8977e-007 -0.500004 1.66664e-005 -123.89 90 -146.11 0 0 0 -96.9566 7.01671e-015 -180 5.30813 13.966 3.80932 -23.1994 1.38206e-015 90 0 0 0 -85.2733 -7.01671e-015 -180 0 0 0 -133.252 8.19752e-007 -1.7303e-005 0 0 0 148.64 -5.90914e-005 5.11773e-006 0 0 0 -8.96842 2.89893e-005 5.33775e-006 0 0 0 -25.1125 2.93912e-006 2.05095e-006 0 0 0 -26.1943 3.64664e-007 6.34187e-007 15.5776 -0.000396 -7.00003e-006 -2.02053e-034 4.65902e-016 2.48481e-017 9.40347 1.03957 -6.51717 -14.5692 4.6015 10.2249 2.77012 -0.006023 0.002114 2.27246 -18.4987 -0.510476 9.40381 1.03954 6.5172 -14.5687 -4.59982 -10.2227 2.77011 -0.006008 -0.002105 2.27169 18.5004 0.512625 
0 0 0 -0 -90 -0 0.775732 -28.7008 45.3914 89.9061 -1.24628 82.4752 0 0 0 -90.0002 0.00019572 -81.1081 -6.39983 -3.85825 -1.00094 167.167 -4.49295 -1.12389 10.3812 -0.008026 0.000217 -16.4859 -0.495847 2.46197 10.3808 -0.007804 0.000289 -11.5611 -0.085958 3.12448 10.3841 -0.008094 0.000472 9.74317 -3.55212 8.12853 10.3841 -0.00811 -0.000332001 9.65997 -0.147893 4.39354 8.68119e-006 -1.00061e-005 -8.75617 -91.5421 7.16007 -173.745 19.7638 1e-006 -5.32907e-015 -86.1494 -3.96819e-005 -0.00127455 18.6534 -3.55271e-015 1.77636e-015 -23.7515 3.37162 4.79299 5.09143 13.9567 2.45185e-006 103.189 1.71294 -4.72114 4.288 3e-006 -2.23821e-013 54.5098 0.00197228 0.000915924 3.85799 -1e-006 1.20792e-013 -33.2131 0.00124367 0.0019753 -1.86812e-005 1.40061e-005 8.75617 -127.018 9.96083 -178.225 19.7638 3e-006 1e-006 -91.1909 -3.38473e-005 0.00376824 18.6534 3e-006 1.5099e-014 -8.45573 -7.55252 -1.57554 5.09143 13.9567 3.3943e-007 100.946 -0.925107 4.89658 4.288 0 -1e-006 52.1417 0.00284349 0.000924021 3.85799 1.6529e-012 1e-006 -43.6618 0.000951799 0.00224326 9.03798 -0.00621016 1.41396 6.05151 -0.261501 -2.46751 8.04433 -0.006286 0.000100998 4.52501 -0.483415 -6.0135 8.04413 -0.006278 0.000110996 3.87977 0.0405418 -3.39857 8.04445 -0.00822 0.000255 5.4309 -0.772253 -4.07411 10.6688 1.06807 4.49488e-005 -10.4644 -0.189512 2.70621 -3.03132 -4.70302 -9.2125 -141.163 -84.4636 152.777 19.0492 1.98952e-013 -3e-006 71.4746 -27.9234 -113.612 10.3706 -7.10542e-015 -2.22045e-016 -97.022 0.000104861 -0.00164985 22.8631 -9.99998e-007 1e-006 -10.1847 7.12436 5.15202 6.48257 0.103652 0.504497 -83.8226 1.22742 -15.4488 3.66844 1.17772e-012 1e-006 32.7848 0.000827308 0.000597109 -3.86821 -4.76039 8.86279 158.738 84.9847 -98.2186 19.0492 1.7053e-013 -3e-006 77.1672 -6.96966 95.0026 10.3706 3e-006 5.50671e-014 -120.24 0.000445922 -0.00184426 22.8631 -9.99999e-007 1e-006 26.7094 -17.6475 -9.21141 6.48255 0.103653 -0.504495 43.4785 13.0978 -8.32553 3.66843 -1.42108e-014 1e-006 27.2085 0.0020869 0.00123151 7.52728 -0.006645 -0.000330001 9.72499 2.80234 10.1133 8.47684 -0.006458 0.000191999 15.5009 -1.67139 -4.8592 8.41605 -3e-006 -7.61613e-014 -103.356 0.267678 -2.35253 -3e-006 3e-006 -3e-006 -23.1098 1.37701e-015 90 2.91577e-007 -0.500004 1.66676e-005 -123.228 90 -146.772 0 0 0 -96.9566 7.01671e-015 -180 5.3349 13.9704 3.80847 -23.1994 1.38206e-015 90 0 0 0 -85.2108 7.01671e-015 -180 0 0 0 -133.214 1.71552e-006 -1.79088e-005 0 0 0 148.54 -3.9066e-005 5.25153e-006 0 0 0 -8.76838 1.09409e-005 2.20975e-006 0 0 0 -25.075 1.99027e-006 1.43482e-006 0 0 0 -26.1943 2.66376e-007 4.75069e-007 15.5776 -0.000396 -7.00002e-006 1.18538e-034 6.83322e-017 -9.93923e-017 9.40347 1.03957 -6.51717 -14.5562 4.56624 10.0635 2.77012 -0.006023 0.002114 2.27246 -18.4987 -0.510476 9.40381 1.03954 6.5172 -14.5558 -4.56415 -10.0612 2.77011 -0.006008 -0.002105 2.27169 18.5004 0.512625 
0 0 0 -0 -90 -0 0.654532 -28.7008 45.8417 89.9438 -0.872385 83.6923 0 0 0 -90 -5.36261e-005 -82.389 -6.42031 -3.85825 -0.857565 165.551 -4.44585 -2.64766 10.3812 -0.008026 0.000217 -17.8089 -0.304254 0.346075 10.3808 -0.007804 0.000289 -8.29438 0.655268 1.7135 10.3841 -0.008094 0.000472 12.0777 -3.88241 8.02225 10.3841 -0.00811 -0.000332001 11.5047 -1.88511 4.32578 8.72594e-006 -9.99993e-006 -8.75617 -95.9488 5.98242 -174.212 19.7638 1e-006 3.55271e-015 -90.7546 9.36346e-006 -0.00127431 18.6534 2.13163e-014 5.32907e-015 -23.1513 2.67924 5.0261 5.09143 13.9567 2.75538e-006 96.0523 2.22713 -4.51256 4.288 3e-006 -2.27374e-013 42.3356 0.00173322 0.00130985 3.85799 -1e-006 9.41469e-014 -26.7161 0.00146045 0.00182316 -1.87259e-005 1.39999e-005 8.75617 -126.223 9.37787 -179.382 19.7638 3e-006 1e-006 -90.8757 -4.04626e-005 0.00376797 18.6534 3e-006 1.33227e-014 -10.0744 -7.43609 -1.67528 5.09143 13.9567 3.82943e-007 101.919 -0.943552 4.8759 4.288 -7.10543e-015 -1e-006 52.8308 0.00286827 0.000890787 3.85799 1.89626e-012 1e-006 -42.2282 0.000997827 0.00220952 9.06719 -0.00621014 1.21155 6.05247 -0.234604 -2.21386 8.04433 -0.006286 0.000100998 3.8145 -0.343662 -5.05546 8.04413 -0.006278 0.000110998 3.58001 0.0921248 -2.85754 8.04445 -0.00822 0.000254999 5.07501 -0.640686 -3.42315 10.6688 1.06807 4.49738e-005 -10.4645 -0.0685337 1.74565 -3.18716 -4.72184 -9.14986 -150.508 -84.9103 141.074 19.0492 1.66977e-013 -3e-006 70.9531 -28.0508 -111.736 10.3706 7.10542e-015 -8.88179e-015 -96.5765 9.15962e-005 -0.00165098 22.8631 -9.99998e-007 1e-006 -11.3026 8.49214 5.20568 6.48257 0.103652 0.504497 -82.2101 0.781001 -15.477 3.66844 1.73106e-012 1e-006 29.1989 0.000761479 0.000662534 -3.7189 -4.74079 8.93675 169.351 85.3717 -111.403 19.0492 1.43885e-013 -3e-006 79.1766 -6.78701 98.7051 10.3706 3e-006 4.4409e-015 -118.816 0.00040159 -0.00185588 22.8631 -9.99999e-007 1e-006 29.8909 -15.7401 -7.3364 6.48255 0.103653 -0.504495 37.7799 13.8392 -6.99346 3.66843 -7.10542e-015 1e-006 27.9904 0.00210322 0.00120298 7.52728 -0.006645 -0.000330002 9.71341 2.79592 10.0896 8.47684 -0.006458 0.000191999 15.565 -1.68375 -4.88192 8.41605 -3e-006 -6.03962e-014 -102.035 0.368996 -2.36537 -3e-006 3e-006 -3e-006 -23.1098 1.37701e-015 90 2.93116e-007 -0.500004 1.66687e-005 -122.526 90 -147.474 0 0 0 -96.9566 7.01671e-015 -180 5.36167 13.9749 3.80762 -23.1994 1.38206e-015 90 0 0 0 -85.1483 7.01671e-015 -180 0 0 0 -133.177 2.45367e-006 -1.83845e-005 0 0 0 148.44 -3.16073e-005 5.36845e-006 0 0 0 -8.56832 4.91068e-006 1.08586e-006 0 0 0 -25.0375 1.30098e-006 9.71759e-007 0 0 0 -26.1943 1.86601e-007 3.44043e-007 15.5776 -0.000396 -7.00002e-006 3.18055e-015 1.55301e-016 4.96962e-017 9.40347 1.03957 -6.51717 -14.5397 4.52224 9.86006 2.77012 -0.006023 0.002114 2.27246 -18.4987 -0.510476 9.40381 1.03954 6.5172 -14.5399 -4.51971 -9.85776 2.77011 -0.006008 -0.002105 2.27169 18.5004 0.512625 
